{
	"asset":{
		"generator":"Khronos glTF Blender I/O v3.5.30",
		"version":"2.0"
	},
	"scene":0,
	"scenes":[
		{
			"name":"Scene",
			"nodes":[
				0
			]
		}
	],
	"nodes":[
		{
			"mesh":0,
			"name":"mesh"
		}
	],
	"meshes":[
		{
			"name":"mesh",
			"primitives":[
				{
					"attributes":{
						"COLOR_0":0,
						"POSITION":1,
						"NORMAL":2
					},
					"indices":3
				}
			]
		}
	],
	"accessors":[
		{
			"bufferView":0,
			"componentType":5123,
			"count":43472,
			"normalized":true,
			"type":"VEC4"
		},
		{
			"bufferView":1,
			"componentType":5126,
			"count":43472,
			"max":[
				0.9852625131607056,
				0.2862478196620941,
				0.44405847787857056
			],
			"min":[
				-0.9483524560928345,
				-0.11750801652669907,
				-0.4478641748428345
			],
			"type":"VEC3"
		},
		{
			"bufferView":2,
			"componentType":5126,
			"count":43472,
			"type":"VEC3"
		},
		{
			"bufferView":3,
			"componentType":5123,
			"count":43500,
			"type":"SCALAR"
		}
	],
	"bufferViews":[
		{
			"buffer":0,
			"byteLength":347776,
			"byteOffset":0,
			"target":34962
		},
		{
			"buffer":0,
			"byteLength":521664,
			"byteOffset":347776,
			"target":34962
		},
		{
			"buffer":0,
			"byteLength":521664,
			"byteOffset":869440,
			"target":34962
		},
		{
			"buffer":0,
			"byteLength":87000,
			"byteOffset":1391104,
			"target":34963
		}
	],
	"buffers":[
		{
			"byteLength":1478104,
			"uri":"data:application/octet-stream;base64,"
		}
	]
}
