{
	"asset":{
		"generator":"Khronos glTF Blender I/O v3.5.30",
		"version":"2.0"
	},
	"scene":0,
	"scenes":[
		{
			"name":"Scene",
			"nodes":[
				0
			]
		}
	],
	"nodes":[
		{
			"mesh":0,
			"name":"mesh"
		}
	],
	"meshes":[
		{
			"name":"mesh",
			"primitives":[
				{
					"attributes":{
						"COLOR_0":0,
						"POSITION":1,
						"NORMAL":2
					},
					"indices":3
				}
			]
		}
	],
	"accessors":[
		{
			"bufferView":0,
			"componentType":5123,
			"count":75680,
			"normalized":true,
			"type":"VEC4"
		},
		{
			"bufferView":1,
			"componentType":5126,
			"count":75680,
			"max":[
				0.34155386686325073,
				0.9900142550468445,
				0.17332129180431366
			],
			"min":[
				-0.3117433190345764,
				-0.9913808107376099,
				-0.1767069399356842
			],
			"type":"VEC3"
		},
		{
			"bufferView":2,
			"componentType":5126,
			"count":75680,
			"type":"VEC3"
		},
		{
			"bufferView":3,
			"componentType":5125,
			"count":75720,
			"type":"SCALAR"
		}
	],
	"bufferViews":[
		{
			"buffer":0,
			"byteLength":605440,
			"byteOffset":0,
			"target":34962
		},
		{
			"buffer":0,
			"byteLength":908160,
			"byteOffset":605440,
			"target":34962
		},
		{
			"buffer":0,
			"byteLength":908160,
			"byteOffset":1513600,
			"target":34962
		},
		{
			"buffer":0,
			"byteLength":302880,
			"byteOffset":2421760,
			"target":34963
		}
	],
	"buffers":[
		{
			"byteLength":2724640,
			"uri":"data:application/octet-stream;base64,"
		}
	]
}
