{
	"asset":{
		"generator":"Khronos glTF Blender I/O v3.5.30",
		"version":"2.0"
	},
	"scene":0,
	"scenes":[
		{
			"name":"Scene",
			"nodes":[
				0
			]
		}
	],
	"nodes":[
		{
			"mesh":0,
			"name":"mesh"
		}
	],
	"meshes":[
		{
			"name":"mesh",
			"primitives":[
				{
					"attributes":{
						"COLOR_0":0,
						"POSITION":1,
						"NORMAL":2
					},
					"indices":3
				}
			]
		}
	],
	"accessors":[
		{
			"bufferView":0,
			"componentType":5123,
			"count":59990,
			"normalized":true,
			"type":"VEC4"
		},
		{
			"bufferView":1,
			"componentType":5126,
			"count":59990,
			"max":[
				0.08738700300455093,
				0.21750223636627197,
				0.9852006435394287
			],
			"min":[
				-0.08691085129976273,
				-0.36889198422431946,
				-0.9881731271743774
			],
			"type":"VEC3"
		},
		{
			"bufferView":2,
			"componentType":5126,
			"count":59990,
			"type":"VEC3"
		},
		{
			"bufferView":3,
			"componentType":5123,
			"count":60384,
			"type":"SCALAR"
		}
	],
	"bufferViews":[
		{
			"buffer":0,
			"byteLength":479920,
			"byteOffset":0,
			"target":34962
		},
		{
			"buffer":0,
			"byteLength":719880,
			"byteOffset":479920,
			"target":34962
		},
		{
			"buffer":0,
			"byteLength":719880,
			"byteOffset":1199800,
			"target":34962
		},
		{
			"buffer":0,
			"byteLength":120768,
			"byteOffset":1919680,
			"target":34963
		}
	],
	"buffers":[
		{
			"byteLength":2040448,
			"uri":"data:application/octet-stream;base64,"
		}
	]
}
